<?xml version="1.0"?>
<svg xmlns="http://www.w3.org/2000/svg" xmlns:xlink="http://www.w3.org/1999/xlink" xmlns:svgjs="http://svgjs.com/svgjs" version="1.1" width="512" height="512" x="0" y="0" viewBox="0 0 512 512" style="enable-background:new 0 0 512 512" xml:space="preserve" class=""><g><g xmlns="http://www.w3.org/2000/svg"><path d="m511.998 284.687c-.143-13.257-5.491-25.611-15.061-34.786-9.285-8.902-21.454-13.748-34.343-13.59-12.862.138-24.952 5.225-34.072 14.353l-81.809 82.327h-32.107c2.384-5.734 3.7-12.02 3.7-18.608 0-26.803-21.793-48.608-48.582-48.608h-110.404c-28.593 0-55.47 11.139-75.681 31.366l-83.639 85.813v129.046h74.971l77.012-66.062h224.845l120.978-126.271c9.295-9.364 14.333-21.78 14.192-34.98zm-35.534 13.897-112.44 117.355h-223.145l-77.012 66.061h-33.867v-86.845l74.925-76.875c14.536-14.515 33.85-22.506 54.395-22.506h110.405c10.246 0 18.582 8.348 18.582 18.608s-8.335 18.608-18.582 18.608h-98.883v30h188.354l90.578-91.152c7.202-7.208 19.045-7.335 26.401-.283 3.701 3.548 5.77 8.326 5.824 13.453.055 5.128-1.911 9.949-5.535 13.576z" fill="#ffffff" data-original="#000000" style="" class=""/><path d="m251.305 158.261c27.57 0 50-22.43 50-50s-22.43-50-50-50-50 22.43-50 50 22.429 50 50 50zm0-70c11.028 0 20 8.972 20 20s-8.972 20-20 20-20-8.972-20-20 8.972-20 20-20z" fill="#ffffff" data-original="#000000" style="" class=""/><path d="m170.19 27.385h30v30h-30z" fill="#ffffff" data-original="#000000" style="" class=""/><path d="m302.419 159.614h30v30h-30z" fill="#ffffff" data-original="#000000" style="" class=""/><path d="m302.419 27.385h30v30h-30z" fill="#ffffff" data-original="#000000" style="" class=""/><path d="m170.19 159.614h30v30h-30z" fill="#ffffff" data-original="#000000" style="" class=""/><path d="m142.805 93.5h30v30h-30z" fill="#ffffff" data-original="#000000" style="" class=""/><path d="m329.805 93.5h30v30h-30z" fill="#ffffff" data-original="#000000" style="" class=""/><path d="m236.305 187h30v30h-30z" fill="#ffffff" data-original="#000000" style="" class=""/><path d="m236.305 0h30v30h-30z" fill="#ffffff" data-original="#000000" style="" class=""/></g></g></svg>
