<?xml version="1.0" encoding="UTF-8"?>
<svg xmlns="http://www.w3.org/2000/svg" id="Icons" viewBox="0 0 74 74" width="512" height="512"><path d="M10,51.1a1,1,0,0,1-1-1V46.44a1,1,0,0,1,2,0V50.1A1,1,0,0,1,10,51.1Z"/><path d="M63,72H10a1,1,0,0,1-1-1V58.91a1,1,0,0,1,2,0V70H62V17.914L48.086,4H11V25.09a1,1,0,1,1-2,0V3a1,1,0,0,1,1-1H48.5a1,1,0,0,1,.707.293l14.5,14.5A1,1,0,0,1,64,17.5V71A1,1,0,0,1,63,72Z"/><path d="M10,38.64a1,1,0,0,1-1-1V33.9a1,1,0,0,1,2,0v3.74A1,1,0,0,1,10,38.64Z"/><path d="M63,18.5H48.5a1,1,0,0,1-1-1V3a1,1,0,0,1,2,0V16.5H63a1,1,0,0,1,0,2Z"/><path d="M38.774,63.125H34.226a1.528,1.528,0,0,1-1.513-1.333l-.275-2.174a14.489,14.489,0,0,1-2.7-1.116l-1.722,1.34A1.528,1.528,0,0,1,26,59.717L22.783,56.5a1.528,1.528,0,0,1-.125-2.015L24,52.759a14.489,14.489,0,0,1-1.116-2.7l-2.174-.275a1.528,1.528,0,0,1-1.333-1.513V43.726a1.528,1.528,0,0,1,1.333-1.513l2.174-.275A14.489,14.489,0,0,1,24,39.241l-1.34-1.722a1.53,1.53,0,0,1,.124-2.014L26,32.283a1.529,1.529,0,0,1,2.015-.125l1.722,1.34a14.489,14.489,0,0,1,2.7-1.116l.275-2.174a1.528,1.528,0,0,1,1.513-1.333h4.548a1.528,1.528,0,0,1,1.513,1.333l.275,2.174a14.489,14.489,0,0,1,2.7,1.116l1.722-1.34A1.528,1.528,0,0,1,47,32.283L50.217,35.5a1.53,1.53,0,0,1,.125,2.015L49,39.241a14.489,14.489,0,0,1,1.116,2.7l2.174.275a1.528,1.528,0,0,1,1.333,1.513v4.548a1.528,1.528,0,0,1-1.333,1.513l-2.174.275A14.489,14.489,0,0,1,49,52.759l1.34,1.722a1.528,1.528,0,0,1-.125,2.015L47,59.717a1.526,1.526,0,0,1-2.015.125L43.259,58.5a14.489,14.489,0,0,1-2.7,1.116l-.275,2.174A1.528,1.528,0,0,1,38.774,63.125Zm-4.129-2h3.71l.307-2.422a1,1,0,0,1,.753-.846,12.453,12.453,0,0,0,3.418-1.412,1,1,0,0,1,1.128.069l1.918,1.492,2.627-2.627-1.492-1.918a1,1,0,0,1-.069-1.128,12.453,12.453,0,0,0,1.412-3.418,1,1,0,0,1,.846-.753l2.422-.307v-3.71L49.2,43.838a1,1,0,0,1-.846-.753,12.453,12.453,0,0,0-1.412-3.418,1,1,0,0,1,.069-1.128l1.492-1.918-2.627-2.627-1.918,1.492a1,1,0,0,1-1.128.069,12.453,12.453,0,0,0-3.418-1.412,1,1,0,0,1-.753-.846l-.307-2.422h-3.71L34.338,33.3a1,1,0,0,1-.753.846,12.453,12.453,0,0,0-3.418,1.412,1,1,0,0,1-1.128-.069l-1.918-1.492-2.627,2.627,1.492,1.918a1,1,0,0,1,.069,1.128,12.453,12.453,0,0,0-1.412,3.418,1,1,0,0,1-.846.753l-2.422.307v3.71l2.422.307a1,1,0,0,1,.846.753,12.453,12.453,0,0,0,1.412,3.418,1,1,0,0,1-.069,1.128l-1.492,1.918,2.627,2.627,1.918-1.492a1,1,0,0,1,1.128-.069,12.453,12.453,0,0,0,3.418,1.412,1,1,0,0,1,.753.846ZM48.764,55.71h0Z"/><path d="M36.5,55.455A9.457,9.457,0,1,1,45.774,46,9.377,9.377,0,0,1,36.5,55.455Zm0-16.91A7.457,7.457,0,1,0,43.774,46,7.375,7.375,0,0,0,36.5,38.545Z"/><path d="M43.542,19.875H16.458a1,1,0,1,1,0-2H43.542a1,1,0,0,1,0,2Z"/><path d="M33,12.875H16.458a1,1,0,1,1,0-2H33a1,1,0,0,1,0,2Z"/></svg>
