<svg id="Layer_1" enable-background="new 0 0 512.099 512.099" height="512" viewBox="0 0 512.099 512.099" width="512" xmlns="http://www.w3.org/2000/svg"><g><path d="m451.18 350.222c-.949-2.25-3.053-4.028-5.47-4.48-2.43-.5-5.02.3-6.76 2.05-2.83 2.751-2.969 7.652 0 10.6 2.783 2.803 7.902 2.779 10.6 0 2.213-2.558 2.756-5.281 1.63-8.17z"/><path d="m444.25 417.252c-4.14 0-7.5 3.35-7.5 7.5.346 9.928 14.656 9.925 15 0 0-4.15-3.36-7.5-7.5-7.5z"/><path d="m444.25 453.082c-4.14 0-7.5 3.35-7.5 7.5.346 9.928 14.656 9.925 15 0 0-4.15-3.36-7.5-7.5-7.5z"/><path d="m444.25 381.423c-4.14 0-7.5 3.36-7.5 7.5.346 9.928 14.655 9.925 15 0 0-4.141-3.36-7.5-7.5-7.5z"/><path d="m451.18 493.542c-.965-2.285-3.043-3.984-5.47-4.49-4.275-.862-8.099 2.089-8.81 5.89-.92 4.413 2.502 8.97 7.35 8.97 5.077 0 8.935-5.408 6.93-10.37z"/><path d="m328.7 488.912c-4.14 0-7.5 3.35-7.5 7.5.346 9.928 14.656 9.925 15 0 0-4.15-3.36-7.5-7.5-7.5z"/><path d="m290.18 488.912c-4.14 0-7.5 3.35-7.5 7.5.346 9.928 14.656 9.925 15 0 0-4.15-3.36-7.5-7.5-7.5z"/><path d="m367.22 488.912c-4.15 0-7.5 3.35-7.5 7.5.339 9.928 14.656 9.926 15 0 0-4.15-3.36-7.5-7.5-7.5z"/><path d="m405.73 488.912c-4.14 0-7.5 3.35-7.5 7.5.346 9.929 14.662 9.925 15 0 0-4.15-3.35-7.5-7.5-7.5z"/><path d="m251.67 488.912c-4.15 0-7.5 3.35-7.5 7.5.339 9.928 14.656 9.926 15 0 0-4.15-3.36-7.5-7.5-7.5z"/><path d="m220.08 493.542c-1.835-4.47-8.705-5.964-12.23-2.44-2.503 2.503-2.88 6.523-.94 9.47 2.533 3.703 8.051 4.654 11.54 1.14 2.124-2.124 2.741-5.392 1.63-8.17z"/><path d="m139.22 18.642c1.581 3.746 6.015 5.658 9.8 4.06 3.793-1.6 5.585-5.979 4.06-9.79-1.342-3.25-4.916-5.172-8.4-4.49-4.556.967-7.191 5.9-5.46 10.22z"/><path d="m188.74 23.272c4.14 0 7.49-3.35 7.49-7.5-.342-9.938-14.658-9.916-15 0 0 4.151 3.36 7.5 7.51 7.5z"/><path d="m359.08 23.272c4.14 0 7.5-3.35 7.5-7.5-.346-9.927-14.655-9.925-15 0 0 4.151 3.36 7.5 7.5 7.5z"/><path d="m401.66 23.272c4.14 0 7.5-3.35 7.5-7.5-.346-9.928-14.655-9.925-15 0 0 4.151 3.36 7.5 7.5 7.5z"/><path d="m316.49 23.272c4.15 0 7.5-3.35 7.5-7.5-.34-9.928-14.656-9.926-15 0 0 4.151 3.36 7.5 7.5 7.5z"/><path d="m273.91 23.272c4.14 0 7.5-3.35 7.5-7.5-.346-9.929-14.662-9.925-15 0 0 4.151 3.35 7.5 7.5 7.5z"/><path d="m231.32 23.272c4.14 0 7.5-3.35 7.5-7.5-.346-9.928-14.655-9.925-15 0 0 4.151 3.36 7.5 7.5 7.5z"/><path d="m437.32 18.642c.379.923.922 1.737 1.63 2.44 2.825 2.825 7.864 2.74 10.6 0 2.839-2.839 2.743-7.867 0-10.61-2.695-2.776-7.557-3.043-10.6 0-2.124 2.124-2.743 5.393-1.63 8.17z"/><path d="m444.25 61.102c4.14 0 7.5-3.35 7.5-7.5-.346-9.927-14.655-9.925-15 0 0 4.15 3.36 7.5 7.5 7.5z"/><path d="m444.25 98.932c4.14 0 7.5-3.36 7.5-7.5-.346-9.928-14.655-9.925-15 0 0 4.141 3.36 7.5 7.5 7.5z"/><path d="m444.25 136.762c4.14 0 7.5-3.36 7.5-7.5-.346-9.928-14.655-9.925-15 0 0 4.141 3.36 7.5 7.5 7.5z"/><path d="m437.32 169.963c.382.918.926 1.728 1.63 2.43 4.581 4.726 12.844 1.245 12.8-5.3 0-3.66-2.669-6.719-6.039-7.35-2.43-.5-5.02.3-6.76 2.05-2.149 2.087-2.73 5.423-1.631 8.17z"/><path d="m65.18 385.022c2.746 1.099 6.081.522 8.17-1.63 2.934-3.533 2.934-7.067 0-10.6-3.268-3.362-8.953-2.645-11.54 1.14-2.408 3.566-.497 9.457 3.37 11.09z"/><path d="m68.05 254.792c4.14 0 7.5-3.36 7.5-7.5-.346-9.928-14.655-9.925-15 0 0 4.14 3.36 7.5 7.5 7.5z"/><path d="m68.05 298.392c4.14 0 7.5-3.36 7.5-7.5-.346-9.928-14.656-9.925-15 0 0 4.14 3.36 7.5 7.5 7.5z"/><path d="m68.05 211.193c4.14 0 7.5-3.36 7.5-7.5-.346-9.928-14.656-9.925-15 0 0 4.139 3.36 7.5 7.5 7.5z"/><path d="m68.05 341.992c4.14 0 7.5-3.36 7.5-7.5-.346-9.928-14.656-9.925-15 0 0 4.141 3.36 7.5 7.5 7.5z"/><path d="m61.81 164.252c.56.827 1.253 1.52 2.08 2.08 7.414 4.754 15.789-4.881 9.46-11.54-2.777-2.857-7.822-2.854-10.6 0-2.601 2.583-2.856 6.623-.94 9.46z"/><path d="m348.302 90.133c-2.732-7.234-13.209-7.264-15.957-.02l-17.316 45.379c-1.477 3.87.463 8.204 4.333 9.681 3.871 1.475 8.204-.464 9.681-4.333l2.471-6.476h17.475l2.44 6.454c1.375 3.636 6.068 5.726 9.667 4.363 3.875-1.465 5.828-5.793 4.363-9.667zm-11.063 29.231 3.054-8.003 3.026 8.003z"/><path d="m264.597 130.627h-.029c-4.629.018-10.97.036-15.827.039v-38.528c-.344-9.931-14.659-9.923-15 0v45.988c0 3.653 2.632 6.775 6.232 7.392 4.329.332 15.308.073 24.652.108 9.912-.379 9.876-14.662-.028-14.999z"/><path d="m176.52 108.477c-5.354-1.971-10.358-4.111-12.206-4.914-.862-1.61-.165-2.783 2.09-3.519 5.564-1.672 10.892 2.447 11.104 2.615 3.173 2.614 7.866 2.188 10.515-.968 2.663-3.173 2.248-7.904-.925-10.566-4.226-3.545-14.25-8.68-25.013-5.445-7.024 2.112-11.997 7.668-12.976 14.5-.925 6.45 1.877 12.654 7.314 16.192 3.95 2.569 11.338 4.865 14.916 6.182 2.469.909 5.243 2.584 4.934 4.315-1.961 6.225-13.391 3.834-16.866-.567-6.922-7.118-17.527 2.503-11.104 10.084 11.872 13.641 38.714 12.739 42.737-6.885 1.267-7.114-1.882-16.371-14.52-21.024z"/><path d="m212.521 130.666c-9.652 0-9.668 15 0 15 9.652 0 9.668-15 0-15z"/><path d="m293.317 130.666c-9.652 0-9.668 15 0 15 9.651 0 9.667-15 0-15z"/><path d="m201.789 269.724c-3.075-2.777-7.817-2.535-10.593.539l-20.109 22.264-5.558-6.154c-6.912-7.14-17.53 2.462-11.132 10.054l11.124 12.316c2.821 3.268 8.311 3.267 11.132 0l25.675-28.426c2.776-3.074 2.534-7.817-.539-10.593z"/><path d="m352.337 282.003h-113.568c-9.931.344-9.923 14.659 0 15h113.569c9.93-.345 9.923-14.659-.001-15z"/><path d="m201.789 213.793c-3.075-2.777-7.816-2.535-10.593.539l-20.109 22.263-5.558-6.154c-2.777-3.073-7.52-3.314-10.593-.539-3.074 2.776-3.315 7.519-.539 10.593l11.124 12.316c2.822 3.267 8.31 3.267 11.132 0l25.675-28.425c2.776-3.074 2.534-7.816-.539-10.593z"/><path d="m352.337 226.072h-113.568c-9.931.344-9.923 14.659 0 15h113.569c9.93-.345 9.923-14.66-.001-15z"/><path d="m201.789 325.655c-3.075-2.777-7.817-2.535-10.593.539l-20.109 22.264-5.558-6.154c-2.777-3.074-7.519-3.314-10.593-.539-3.074 2.776-3.315 7.519-.539 10.593l11.124 12.316c2.821 3.268 8.311 3.267 11.132 0l25.675-28.426c2.776-3.074 2.534-7.817-.539-10.593z"/><path d="m359.837 345.434c0-4.142-3.358-7.5-7.5-7.5h-113.568c-9.931.344-9.923 14.659 0 15h113.569c4.142 0 7.499-3.358 7.499-7.5z"/><path d="m312.682 386.201c-3.057-4.983-9.271-6.766-14.601-4.722-5.768 2.212-9.465 8.727-12.996 13.458-5.066 6.788-9.871 13.823-14.227 21.091-4.974 8.301 7.99 15.852 12.952 7.571 3.779-6.305 7.914-12.42 12.226-18.37 1.163-1.604 2.343-3.194 3.552-4.763.142 10.343 4.816 20.416 16.273 19.692 5.448-1.512 10.423-3.98 14.924-7.404 1.671.066 5.906 3.943 6.079 4.045 4.812 2.841 9.909 2.99 15.261 1.893 9.45-1.937 5.451-16.398-3.988-14.464-3.914.802-5.367-1.962-8.459-3.86-4.586-2.814-9.687-3.369-14.707-1.336-3.463 1.581-6.686 3.525-9.67 5.833-1.196-6.151.847-13.015-2.619-18.664z"/><path d="m126.463 449.926 19.348 16.313c3.646 2.624 7.169 2.324 10.568-.899 2.67-3.167 2.268-7.898-.899-10.568l-16.682-14.065v-28.837c-.341-9.922-14.656-9.931-15 0v32.324c-.001 2.209.975 4.307 2.665 5.732z"/><path d="m444.25 191.192c-11.146 0-21.673 2.7-30.962 7.479v-143.886c0-4.142-3.358-7.5-7.5-7.5h-273.066c-10.581-35.282-52.015-56.692-87.64-43.199-3.897 1.401-5.921 5.697-4.52 9.595 1.401 3.897 5.697 5.921 9.595 4.52 33.709-12.625 71.283 13.755 70.793 49.792 0 29.169-23.731 52.9-52.9 52.9-41.42.356-67.24-47.041-44.435-81.588 2.25-3.477 1.256-8.121-2.222-10.371-3.475-2.25-8.12-1.256-10.371 2.222-37.035 58.745 26.089 128.195 87.99 97.259v256.055c-61.112 33.627-38.42 126.776 32.286 127.622 30.228 0 55.906-19.856 64.677-47.21 70.068-.29 141.271-.29 210.175-.29 4.142 0 7.5-3.358 7.5-7.5 0-15.285.365-31.09 0-46.211-.233-9.696-15.235-9.332-15.001.362.302 12.493-.008 25.528 0 38.349-65.576 0-133.113.01-199.685.277 4.472-45.945-40.54-83.676-84.95-71.349v-195.501h284.274v26.137c-28.85 25.595-29.233 73.721.054 99.923l.307 58.58c-.165 9.48 14.654 10.094 14.826.263.286-16.306 0-48.312 0-48.312 25.009 13.465 59.261 7.75 78.521-12.284.343-.29.657-.608.94-.95 41.53-42.167 11.12-115.343-48.686-115.184zm-312.953 200.1c29.169 0 52.901 23.731 52.901 52.9-2.906 70.179-102.906 70.159-105.801 0 0-29.169 23.731-52.9 52.9-52.9zm-17.284-223.273v-50.09c14.832-13.461 23.611-34.409 21.7-55.645h262.574v105.734h-284.274zm330.237 143.974c-12.942 0-24.813-4.672-34.016-12.417 4.214-8.764 11.64-15.577 20.873-19.006 2.467-.917 4.273-3.06 4.759-5.646s-.42-5.239-2.386-6.988c-7.05-6.012-7.248-17.748-.334-23.937 3.294-3.096 7.602-4.647 12.151-4.365 8.055.499 14.708 7.207 15.146 15.27.27 4.977-1.707 9.727-5.422 13.032-1.966 1.749-2.872 4.401-2.386 6.988.486 2.586 2.292 4.729 4.759 5.646 9.109 3.384 16.647 10.323 20.866 19.013-9.204 7.741-21.072 12.41-34.01 12.41zm44.523-24.359c-4.339-6.841-10.194-12.577-17.154-16.784 2.778-5.045 4.123-10.819 3.801-16.759-.857-15.799-13.408-28.451-29.195-29.43-24.383-1.724-41.191 24.919-29.329 46.184-6.955 4.207-12.819 9.951-17.164 16.795-22.589-34.534 2.973-81.702 44.52-81.448 41.537-.255 67.107 46.915 44.521 81.442z"/><path d="m34.818 64.624 11.175 10.893-2.638 15.381c.351 7.145 3.978 9.781 10.882 7.907l13.813-7.262 13.813 7.262c4.895 2.572 11.978-1.517 10.882-7.907l-2.638-15.381 11.175-10.893c3.916-5.987 2.53-10.251-4.157-12.792l-15.443-2.244-6.907-13.994c-4.484-5.574-8.967-5.574-13.451 0l-6.906 13.994-15.444 2.244c-6.686 2.541-8.072 6.805-4.156 12.792zm25.66-.759c3.557-.517 6.464-4.748 7.573-8.005 2.104 5.094 6.395 8.244 11.88 8.631-4.194 3.575-5.865 8.63-4.538 13.966-4.76-3.335-9.9-3.352-14.685 0 1.292-5.358-.328-10.43-4.538-13.967z"/></g></svg>